<svg width="34" height="32" viewBox="0 0 34 32" fill="none" xmlns="http://www.w3.org/2000/svg">
<g clip-path="url(#clip0)">
<path d="M29.0186 4.6597C22.3787 -1.5552 11.6149 -1.55371 4.97699 4.66312C-1.66091 10.88 -1.65932 20.9578 4.98064 27.1727C11.6206 33.3876 22.3844 33.3862 29.0223 27.1693C32.2102 24.1836 34.0006 20.1345 33.9996 15.9128C33.9987 11.6918 32.207 7.64396 29.0186 4.6597ZM25.7455 22.1713C25.7448 22.172 25.7441 22.1727 25.7433 22.1734V22.1681L24.8819 22.9692C23.768 24.0254 22.1456 24.4599 20.6036 24.1152C19.05 23.7259 17.5731 23.1061 16.2289 22.2795C14.9801 21.5323 13.8228 20.6587 12.7779 19.6745C11.8166 18.781 10.9529 17.7999 10.1996 16.7458C9.37561 15.6116 8.72343 14.3761 8.26158 13.0743C7.73212 11.5451 8.17087 9.86707 9.39493 8.73972L10.4036 7.79535C10.684 7.53161 11.1397 7.53068 11.4213 7.79324C11.422 7.79392 11.4228 7.79461 11.4236 7.79535L14.6082 10.7771C14.8899 11.0396 14.8909 11.4663 14.6105 11.7299C14.6097 11.7306 14.609 11.7313 14.6082 11.7321L12.7382 13.4829C12.2017 13.9798 12.1342 14.7694 12.5796 15.3399C13.2559 16.2089 14.0044 17.0267 14.8179 17.7857C15.725 18.6387 16.711 19.4145 17.7646 20.1043C18.3733 20.5018 19.1986 20.4348 19.7252 19.9451L21.5329 18.2261C21.8133 17.9624 22.269 17.9615 22.5506 18.224C22.5513 18.2247 22.5521 18.2254 22.5529 18.2261L25.7432 21.2185C26.025 21.481 26.026 21.9075 25.7455 22.1713Z" fill="black"/>
</g>
<defs>
<clipPath id="clip0">
<rect width="34" height="31.8334" fill="white"/>
</clipPath>
</defs>
</svg>
